<svg width="24" height="24" viewBox="0 0 24 24" fill="none" xmlns="http://www.w3.org/2000/svg">
<path d="M1 2.71429C1 2.52485 1.07525 2.34316 1.20921 2.20921C1.34316 2.07526 1.52485 2 1.71429 2H3.85714C4.01647 2.00004 4.17121 2.05336 4.29676 2.15146C4.4223 2.24957 4.51144 2.38683 4.55 2.54143L5.12857 4.85714H21.7143C21.8228 4.85717 21.9298 4.88192 22.0274 4.9295C22.1249 4.97709 22.2102 5.04626 22.277 5.13177C22.3438 5.21728 22.3902 5.31688 22.4128 5.42301C22.4353 5.52914 22.4334 5.63901 22.4071 5.74429L20.2643 14.3157C20.2257 14.4703 20.1366 14.6076 20.011 14.7057C19.8855 14.8038 19.7308 14.8571 19.5714 14.8571H6.71429C6.55496 14.8571 6.40021 14.8038 6.27467 14.7057C6.14913 14.6076 6.05999 14.4703 6.02143 14.3157L3.3 3.42857H1.71429C1.52485 3.42857 1.34316 3.35332 1.20921 3.21936C1.07525 3.08541 1 2.90373 1 2.71429ZM5.48571 6.28571L7.27143 13.4286H19.0143L20.8 6.28571H5.48571ZM8.14286 17.7143C7.76398 17.7143 7.40061 17.8648 7.1327 18.1327C6.8648 18.4006 6.71429 18.764 6.71429 19.1429C6.71429 19.5217 6.8648 19.8851 7.1327 20.153C7.40061 20.4209 7.76398 20.5714 8.14286 20.5714C8.52174 20.5714 8.8851 20.4209 9.15301 20.153C9.42092 19.8851 9.57143 19.5217 9.57143 19.1429C9.57143 18.764 9.42092 18.4006 9.15301 18.1327C8.8851 17.8648 8.52174 17.7143 8.14286 17.7143ZM5.28571 19.1429C5.28571 18.3851 5.58673 17.6584 6.12255 17.1226C6.65837 16.5867 7.3851 16.2857 8.14286 16.2857C8.90062 16.2857 9.62734 16.5867 10.1632 17.1226C10.699 17.6584 11 18.3851 11 19.1429C11 19.9006 10.699 20.6273 10.1632 21.1632C9.62734 21.699 8.90062 22 8.14286 22C7.3851 22 6.65837 21.699 6.12255 21.1632C5.58673 20.6273 5.28571 19.9006 5.28571 19.1429ZM18.1429 17.7143C17.764 17.7143 17.4006 17.8648 17.1327 18.1327C16.8648 18.4006 16.7143 18.764 16.7143 19.1429C16.7143 19.5217 16.8648 19.8851 17.1327 20.153C17.4006 20.4209 17.764 20.5714 18.1429 20.5714C18.5217 20.5714 18.8851 20.4209 19.153 20.153C19.4209 19.8851 19.5714 19.5217 19.5714 19.1429C19.5714 18.764 19.4209 18.4006 19.153 18.1327C18.8851 17.8648 18.5217 17.7143 18.1429 17.7143ZM15.2857 19.1429C15.2857 18.3851 15.5867 17.6584 16.1226 17.1226C16.6584 16.5867 17.3851 16.2857 18.1429 16.2857C18.9006 16.2857 19.6273 16.5867 20.1632 17.1226C20.699 17.6584 21 18.3851 21 19.1429C21 19.9006 20.699 20.6273 20.1632 21.1632C19.6273 21.699 18.9006 22 18.1429 22C17.3851 22 16.6584 21.699 16.1226 21.1632C15.5867 20.6273 15.2857 19.9006 15.2857 19.1429Z" fill="white"/>
</svg>
