<svg width="44" height="35" viewBox="0 0 44 35" fill="none" xmlns="http://www.w3.org/2000/svg">
<circle cx="32" cy="21" r="12" fill="#BBCAC7"/>
<path d="M8.75 2.91667L4.375 8.75V29.1667C4.375 29.9402 4.68229 30.6821 5.22927 31.2291C5.77625 31.776 6.51812 32.0833 7.29167 32.0833H27.7083C28.4819 32.0833 29.2237 31.776 29.7707 31.2291C30.3177 30.6821 30.625 29.9402 30.625 29.1667V8.75L26.25 2.91667H8.75Z" stroke="#2F3130" stroke-width="2" stroke-linecap="round" stroke-linejoin="round"/>
<path d="M4.375 8.75H30.625" stroke="#2F3130" stroke-width="2" stroke-linecap="round" stroke-linejoin="round"/>
<path d="M23.3333 14.5833C23.3333 16.1304 22.7187 17.6142 21.6247 18.7081C20.5308 19.8021 19.0471 20.4167 17.5 20.4167C15.9529 20.4167 14.4691 19.8021 13.3752 18.7081C12.2812 17.6142 11.6666 16.1304 11.6666 14.5833" stroke="#2F3130" stroke-width="2" stroke-linecap="round" stroke-linejoin="round"/>
</svg>
