<svg width="43" height="35" viewBox="0 0 43 35" fill="none" xmlns="http://www.w3.org/2000/svg">
<circle cx="31" cy="19" r="12" fill="#BBCAC7"/>
<path d="M26.7808 8.21917L21.6242 13.3758M26.7808 8.21917C24.3194 5.75775 20.981 4.375 17.5 4.375C14.019 4.375 10.6806 5.75775 8.21917 8.21917M26.7808 8.21917C29.2422 10.6806 30.625 14.019 30.625 17.5C30.625 19.2236 30.2855 20.9303 29.6259 22.5227C28.9663 24.1151 27.9996 25.5621 26.7808 26.7808M21.6242 13.3758C20.5302 12.2819 19.0471 11.6667 17.5 11.6667C15.9529 11.6667 14.4698 12.2819 13.3758 13.3758M21.6242 13.3758C22.7181 14.4698 23.3333 15.9529 23.3333 17.5C23.3333 19.0471 22.7181 20.5302 21.6242 21.6242M21.6242 21.6242L26.7808 26.7808M21.6242 21.6242C20.5302 22.7181 19.0471 23.3333 17.5 23.3333C15.9529 23.3333 14.4698 22.7181 13.3758 21.6242M26.7808 26.7808C25.5621 27.9996 24.1151 28.9663 22.5227 29.6259C20.9303 30.2855 19.2236 30.625 17.5 30.625C15.7764 30.625 14.0697 30.2855 12.4773 29.6259C10.8849 28.9663 9.43794 27.9996 8.21917 26.7808M13.3758 13.3758L8.21917 8.21917M13.3758 13.3758C12.2819 14.4698 11.6667 15.9529 11.6667 17.5C11.6667 19.0471 12.2819 20.5302 13.3758 21.6242M8.21917 8.21917C5.75775 10.6806 4.375 14.019 4.375 17.5C4.375 19.2236 4.71449 20.9303 5.37408 22.5227C6.03367 24.1151 7.0004 25.5621 8.21917 26.7808M13.3758 21.6242L8.21917 26.7808" stroke="#2F3130" stroke-width="2" stroke-linecap="round" stroke-linejoin="round"/>
</svg>
