<svg width="44" height="35" viewBox="0 0 44 35" fill="none" xmlns="http://www.w3.org/2000/svg">
<circle cx="32" cy="20" r="12" fill="#BBCAC7"/>
<path d="M32.725 18.1672L29.4438 10.5109C29.36 10.3132 29.22 10.1446 29.041 10.0259C28.8621 9.90728 28.6522 9.84392 28.4375 9.84375H25.1562V7.65625C25.1562 7.36617 25.041 7.08797 24.8359 6.88285C24.6308 6.67773 24.3526 6.5625 24.0625 6.5625H3.28125C2.99117 6.5625 2.71297 6.67773 2.50785 6.88285C2.30273 7.08797 2.1875 7.36617 2.1875 7.65625V26.25C2.1875 26.5401 2.30273 26.8183 2.50785 27.0234C2.71297 27.2285 2.99117 27.3438 3.28125 27.3438H5.62188C5.87375 28.2706 6.4236 29.0887 7.18659 29.6721C7.94958 30.2554 8.88332 30.5714 9.84375 30.5714C10.8042 30.5714 11.7379 30.2554 12.5009 29.6721C13.2639 29.0887 13.8138 28.2706 14.0656 27.3438H20.9344C21.1862 28.2706 21.7361 29.0887 22.4991 29.6721C23.2621 30.2554 24.1958 30.5714 25.1562 30.5714C26.1167 30.5714 27.0504 30.2554 27.8134 29.6721C28.5764 29.0887 29.1263 28.2706 29.3781 27.3438H31.7188C32.0088 27.3438 32.287 27.2285 32.4921 27.0234C32.6973 26.8183 32.8125 26.5401 32.8125 26.25V18.5937C32.8122 18.4471 32.7825 18.3021 32.725 18.1672ZM25.1562 12.0312H27.7156L30.0563 17.5H25.1562V12.0312ZM9.84375 28.4375C9.4111 28.4375 8.98817 28.3092 8.62844 28.0688C8.26871 27.8285 7.98833 27.4868 7.82276 27.0871C7.6572 26.6874 7.61388 26.2476 7.69828 25.8232C7.78269 25.3989 7.99103 25.0091 8.29695 24.7032C8.60288 24.3973 8.99266 24.1889 9.41699 24.1045C9.84132 24.0201 10.2812 24.0634 10.6809 24.229C11.0806 24.3946 11.4222 24.675 11.6626 25.0347C11.903 25.3944 12.0312 25.8174 12.0312 26.25C12.0312 26.8302 11.8008 27.3866 11.3905 27.7968C10.9803 28.207 10.4239 28.4375 9.84375 28.4375ZM20.9344 25.1562H14.0656C13.8138 24.2294 13.2639 23.4113 12.5009 22.8279C11.7379 22.2446 10.8042 21.9286 9.84375 21.9286C8.88332 21.9286 7.94958 22.2446 7.18659 22.8279C6.4236 23.4113 5.87375 24.2294 5.62188 25.1562H4.375V8.75H22.9688V22.4875C22.4707 22.7766 22.0346 23.1611 21.6855 23.6191C21.3364 24.077 21.0812 24.5994 20.9344 25.1562ZM25.1562 28.4375C24.7236 28.4375 24.3007 28.3092 23.9409 28.0688C23.5812 27.8285 23.3008 27.4868 23.1353 27.0871C22.9697 26.6874 22.9264 26.2476 23.0108 25.8232C23.0952 25.3989 23.3035 25.0091 23.6095 24.7032C23.9154 24.3973 24.3052 24.1889 24.7295 24.1045C25.1538 24.0201 25.5937 24.0634 25.9934 24.229C26.3931 24.3946 26.7347 24.675 26.9751 25.0347C27.2155 25.3944 27.3438 25.8174 27.3438 26.25C27.3438 26.8302 27.1133 27.3866 26.703 27.7968C26.2928 28.207 25.7364 28.4375 25.1562 28.4375ZM30.625 25.1562H29.3781C29.1363 24.2195 28.5907 23.3893 27.8268 22.7956C27.0629 22.2019 26.1237 21.8781 25.1562 21.875V19.6875H30.625V25.1562Z" fill="#2F3130"/>
</svg>
